<svg width="25" height="24"  fill="currentColor" xmlns="http://www.w3.org/2000/svg"><path d="m21.93 8.72-5.74-.83-2.56-5.18a1.26 1.26 0 0 0-2.25 0L8.8 7.9l-5.73.83a1.25 1.25 0 0 0-.7 2.13l4.15 4.02-.98 5.69a1.25 1.25 0 0 0 1.82 1.31l5.13-2.68 5.13 2.68c.91.48 2-.29 1.82-1.31l-.98-5.69 4.15-4.02c.75-.72.34-1.98-.7-2.13Zm-5.48 5.5.93 5.4-4.88-2.55-4.88 2.55.93-5.4-3.95-3.83 5.46-.79 2.44-4.92 2.44 4.92 5.46.79-3.95 3.83Z"/><path d="m12.5 3.02 3.07 5.27 5.97 1.3-4.07 4.54.62 6.07-5.59-2.46-5.58 2.46.61-6.07-4.06-4.55L9.43 8.3l3.07-5.27Z"/></svg>