<svg width="40" height="40" fill="currentColor" xmlns="http://www.w3.org/2000/svg"><path d="M24.71 10.5c-1.23-.05-1.6-.06-4.71-.06s-3.48 0-4.71.06c-3.17.15-4.64 1.65-4.79 4.79-.05 1.23-.06 1.6-.06 4.71s0 3.48.06 4.71c.15 3.14 1.62 4.64 4.79 4.79 1.23.05 1.6.07 4.71.07 3.12 0 3.48-.02 4.71-.07 3.17-.14 4.64-1.65 4.79-4.79.05-1.23.07-1.6.07-4.71s-.02-3.48-.07-4.71c-.15-3.14-1.62-4.64-4.79-4.79ZM20 26a6 6 0 1 1 0-12 6 6 0 0 1 0 12Zm6.23-10.83a1.4 1.4 0 1 1 0-2.8 1.4 1.4 0 0 1 0 2.8ZM23.89 20a3.89 3.89 0 1 1-7.78 0 3.89 3.89 0 0 1 7.78 0ZM20 0a20 20 0 1 0 0 40 20 20 0 0 0 0-40Zm11.6 24.81c-.2 4.24-2.56 6.6-6.79 6.79a83.1 83.1 0 0 1-4.81.07c-3.17 0-3.57-.02-4.81-.07-4.24-.2-6.6-2.55-6.79-6.79A82.93 82.93 0 0 1 8.33 20c0-3.17.02-3.57.07-4.81.2-4.24 2.55-6.6 6.79-6.79 1.24-.05 1.64-.07 4.81-.07s3.57.02 4.81.07c4.24.2 6.6 2.56 6.79 6.79.05 1.24.07 1.64.07 4.81s-.02 3.57-.07 4.81Z"/></svg>