<svg width="13" height="12" viewBox="0 0 13 12" fill="none" xmlns="http://www.w3.org/2000/svg">
<path d="M5.88698 10.3799L5.87607 10.3692L5.86454 10.3592C4.18208 8.89917 2.83126 7.71068 1.89623 6.59468C0.966606 5.48514 0.5 4.50692 0.5 3.47368C0.5 1.80094 1.81221 0.5 3.541 0.5C4.48958 0.5 5.44603 0.941587 6.05956 1.65289L6.43818 2.09184L6.81679 1.65289C7.43032 0.941587 8.38677 0.5 9.33535 0.5C11.0641 0.5 12.3764 1.80094 12.3764 3.47368C12.3764 4.50692 11.9097 5.48514 10.9801 6.59468C10.0451 7.71068 8.69427 8.89917 7.01181 10.3592L7.00028 10.3692L6.98938 10.3799L6.43818 10.9206L5.88698 10.3799Z" stroke="currentColor"/>
</svg>
