<svg width="14" height="8" viewBox="0 0 14 8" fill="none" xmlns="http://www.w3.org/2000/svg">
<mask id="path-1-inside-1_37_19863" fill="white">
<path fill-rule="evenodd" clip-rule="evenodd" d="M0.15082 4.48987C-0.0502734 4.19384 -0.0502734 3.80616 0.15082 3.51013C1.58994 1.39167 4.01897 0 6.77304 0C9.5271 0 11.9561 1.39167 13.3953 3.51014C13.5963 3.80616 13.5963 4.19385 13.3953 4.48987C11.9561 6.60833 9.5271 8 6.77304 8C4.01897 8 1.58994 6.60833 0.15082 4.48987Z"/>
</mask>
<path d="M13.3953 3.51014L12.5681 4.07206L13.3953 3.51014ZM13.3953 4.48987L12.5681 3.92794L13.3953 4.48987ZM0.978008 4.07206C2.23893 2.21591 4.36414 1 6.77304 1V-1C3.67379 -1 0.940949 0.567426 -0.676367 2.94821L0.978008 4.07206ZM6.77304 1C9.18193 1 11.3071 2.21591 12.5681 4.07206L14.2224 2.94821C12.6051 0.567429 9.87228 -1 6.77304 -1V1ZM12.5681 3.92794C11.3071 5.78409 9.18193 7 6.77304 7V9C9.87228 9 12.6051 7.43257 14.2224 5.05179L12.5681 3.92794ZM6.77304 7C4.36414 7 2.23893 5.78409 0.978008 3.92794L-0.676367 5.05179C0.940949 7.43257 3.67379 9 6.77304 9V7ZM12.5681 4.07206C12.5387 4.0289 12.5387 3.97111 12.5681 3.92794L14.2224 5.05179C14.6539 4.41659 14.6539 3.58342 14.2224 2.94821L12.5681 4.07206ZM-0.676367 2.94821C-1.10788 3.58342 -1.10788 4.41658 -0.676367 5.05179L0.978008 3.92794C1.00733 3.9711 1.00733 4.0289 0.978008 4.07206L-0.676367 2.94821Z" fill="currentColor" mask="url(#path-1-inside-1_37_19863)"/>
<circle cx="6.77344" cy="4" r="3.5" stroke="currentColor"/>
<circle cx="6.77344" cy="4" r="1" fill="currentColor"/>
</svg>
