<svg xmlns="http://www.w3.org/2000/svg" xmlns:xlink="http://www.w3.org/1999/xlink"><defs><symbol fill="none" viewBox="0 0 6 10" id="icon-arrow-breadcrumbs"><path fill-rule="evenodd" clip-rule="evenodd" d="M6 5a.997.997 0 01-.293.707l-4 4A.999.999 0 11.293 8.293l3.305-3.305-3.18-3.293a1 1 0 011.44-1.39l3.861 4A.997.997 0 016 5" fill="currentColor" /></symbol><symbol fill="none" viewBox="0 0 13 11" id="icon-arrow-button"><path d="M11.125 5.5H1m10.125 0l-4.5 4.5m4.5-4.5L6.625 1" stroke="currentColor" stroke-width="1.8" stroke-linecap="round" stroke-linejoin="round" /></symbol><symbol fill="none" viewBox="0 0 12 7" id="icon-arrow-select"><path d="M11 1L6 6 1 1" stroke="currentColor" stroke-width="2" stroke-linecap="round" stroke-linejoin="round" /></symbol><symbol fill="none" viewBox="0 0 13 12" id="icon-comment"><path d="M1.521 8.805l.017-.188-.11-.153A4.688 4.688 0 01.5 5.684C.5 2.883 3.104.5 6.438.5c3.334 0 5.938 2.383 5.938 5.184 0 2.802-2.604 5.184-5.938 5.184a6.606 6.606 0 01-2.443-.459l-.223-.088-.208.118c-.88.498-1.993.79-2.7.939.113-.209.21-.44.291-.686.178-.533.3-1.172.366-1.887z" stroke="currentColor" /></symbol><symbol fill="none" viewBox="0 0 20 20" id="icon-exclamation-mark"><path fill-rule="evenodd" clip-rule="evenodd" d="M9 14a1 1 0 102 0 1 1 0 00-2 0zm0-3a1 1 0 002 0V6a1 1 0 00-2 0v5zm1-9c-4.411 0-8 3.589-8 8s3.589 8 8 8 8-3.589 8-8-3.589-8-8-8m0 18C4.477 20 0 15.523 0 10S4.477 0 10 0c5.522 0 10 4.477 10 10s-4.478 10-10 10" fill="currentColor" /></symbol><symbol fill="currentColor" viewBox="0 0 25 24" id="icon-filled-star"><path d="M21.93 8.72l-5.74-.83-2.56-5.18a1.26 1.26 0 00-2.25 0L8.8 7.9l-5.73.83a1.25 1.25 0 00-.7 2.13l4.15 4.02-.98 5.69a1.25 1.25 0 001.82 1.31l5.13-2.68 5.13 2.68c.91.48 2-.29 1.82-1.31l-.98-5.69 4.15-4.02c.75-.72.34-1.98-.7-2.13zm-5.48 5.5l.93 5.4-4.88-2.55-4.88 2.55.93-5.4-3.95-3.83 5.46-.79 2.44-4.92 2.44 4.92 5.46.79-3.95 3.83z" /><path d="M12.5 3.02l3.07 5.27 5.97 1.3-4.07 4.54.62 6.07-5.59-2.46-5.58 2.46.61-6.07-4.06-4.55L9.43 8.3l3.07-5.27z" /></symbol><symbol fill="currentColor" viewBox="0 0 20 20" id="icon-info-mark"><path fill-rule="evenodd" clip-rule="evenodd" d="M9 6a1 1 0 112 0 1 1 0 01-2 0zm0 3a1 1 0 012 0v5a1 1 0 01-2 0V9zm1 9c-4.411 0-8-3.589-8-8s3.589-8 8-8 8 3.589 8 8-3.589 8-8 8m0-18C4.477 0 0 4.477 0 10s4.477 10 10 10c5.522 0 10-4.477 10-10S15.522 0 10 0" /></symbol><symbol fill="currentColor" viewBox="0 0 40 40" id="icon-instagram-icon"><path d="M24.71 10.5c-1.23-.05-1.6-.06-4.71-.06s-3.48 0-4.71.06c-3.17.15-4.64 1.65-4.79 4.79-.05 1.23-.06 1.6-.06 4.71s0 3.48.06 4.71c.15 3.14 1.62 4.64 4.79 4.79 1.23.05 1.6.07 4.71.07 3.12 0 3.48-.02 4.71-.07 3.17-.14 4.64-1.65 4.79-4.79.05-1.23.07-1.6.07-4.71s-.02-3.48-.07-4.71c-.15-3.14-1.62-4.64-4.79-4.79zM20 26a6 6 0 110-12 6 6 0 010 12zm6.23-10.83a1.4 1.4 0 110-2.8 1.4 1.4 0 010 2.8zM23.89 20a3.89 3.89 0 11-7.78 0 3.89 3.89 0 017.78 0zM20 0a20 20 0 100 40 20 20 0 000-40zm11.6 24.81c-.2 4.24-2.56 6.6-6.79 6.79a83.1 83.1 0 01-4.81.07c-3.17 0-3.57-.02-4.81-.07-4.24-.2-6.6-2.55-6.79-6.79A82.93 82.93 0 018.33 20c0-3.17.02-3.57.07-4.81.2-4.24 2.55-6.6 6.79-6.79 1.24-.05 1.64-.07 4.81-.07s3.57.02 4.81.07c4.24.2 6.6 2.56 6.79 6.79.05 1.24.07 1.64.07 4.81s-.02 3.57-.07 4.81z" /></symbol><symbol fill="none" viewBox="0 0 13 12" id="icon-like"><path d="M5.887 10.38l-.01-.01-.012-.01C4.182 8.9 2.83 7.71 1.896 6.594.966 5.485.5 4.507.5 3.474.5 1.8 1.812.5 3.541.5A3.4 3.4 0 016.06 1.653l.378.439.379-.44A3.4 3.4 0 019.335.5c1.73 0 3.041 1.3 3.041 2.974 0 1.033-.466 2.011-1.396 3.12-.935 1.117-2.286 2.305-3.968 3.765L7 10.37l-.01.01-.552.542-.551-.541z" stroke="currentColor" /></symbol><symbol fill="none" viewBox="0 0 25 24" id="icon-menu-button"><rect x="2.5" y="5" width="20" height="2" rx="1" fill="currentColor" /><rect x="2.5" y="11" width="20" height="2" rx="1" fill="currentColor" /><rect x="2.5" y="17" width="20" height="2" rx="1" fill="currentColor" /></symbol><symbol fill="none" viewBox="0 0 16 19" id="icon-profile-icon"><path fill-rule="evenodd" clip-rule="evenodd" d="M8 11C3.925 11 .554 14.059.062 18.002-.007 18.55.447 19 1 19c.552 0 .99-.451 1.082-.996A6.01 6.01 0 018 13a6.01 6.01 0 015.917 5.004c.091.545.53.996 1.083.996.552 0 1.006-.45.938-.998C15.445 14.059 12.074 11 8 11z" fill="currentColor" /><path d="M8 9c2.206 0 4-1.794 4-4s-1.794-4-4-4-4 1.794-4 4 1.794 4 4 4" stroke="currentColor" stroke-width="2" /></symbol><symbol fill="none" viewBox="0 0 20 20" id="icon-question-mark"><path fill-rule="evenodd" clip-rule="evenodd" d="M6.5 7.5C6.5 5.57 8.07 4 10 4s3.5 1.57 3.5 3.5c0 1.58-1.06 2.903-2.5 3.337V12a1 1 0 11-2 0v-2a1 1 0 011-1c.827 0 1.5-.673 1.5-1.5S10.827 6 10 6s-1.5.673-1.5 1.5a1 1 0 11-2 0zM9 15a1 1 0 112 0 1 1 0 11-2 0zm1 3c-4.411 0-8-3.589-8-8s3.589-8 8-8 8 3.589 8 8-3.589 8-8 8m0-18C4.486 0 0 4.486 0 10s4.486 10 10 10 10-4.486 10-10S15.514 0 10 0" fill="currentColor" /></symbol><symbol fill="none" viewBox="0 0 18 18" id="icon-search-icon"><path d="M17 17l-4.904-4.904m0 0a6.5 6.5 0 10-9.192-9.192 6.5 6.5 0 009.192 9.192z" stroke="currentColor" stroke-width="1.8" stroke-linecap="round" stroke-linejoin="round" /></symbol><symbol fill="currentColor" viewBox="0 0 22 21" id="icon-star"><path d="M20 6.72l-5.73-.83L11.7.72a1.26 1.26 0 00-2.26 0L6.9 5.88l-5.74.83a1.25 1.25 0 00-.7 2.13l4.16 4.02-.98 5.69a1.25 1.25 0 001.82 1.31l5.13-2.68 5.13 2.68c.9.48 2-.29 1.82-1.31l-.98-5.69 4.15-4.02c.74-.72.33-1.98-.7-2.13zm-5.47 5.5l.93 5.4-4.88-2.55-4.88 2.55.93-5.4-3.95-3.83 5.46-.79 2.44-4.92 2.44 4.92 5.46.79-3.95 3.83z" /></symbol><symbol fill="none" viewBox="0 0 14 8" id="icon-view"><path d="M13.395 3.51l-.827.562.827-.562zm0 .98l-.827-.562.827.562zM.978 4.072A6.992 6.992 0 016.773 1v-2a8.992 8.992 0 00-7.45 3.948L.979 4.072zM6.773 1a6.992 6.992 0 015.795 3.072l1.654-1.124A8.992 8.992 0 006.773-1v2zm5.795 2.928A6.992 6.992 0 016.773 7v2c3.1 0 5.832-1.567 7.45-3.948l-1.655-1.124zM6.773 7A6.992 6.992 0 01.978 3.928L-.676 5.052A8.992 8.992 0 006.773 9V7zm5.795-2.928a.129.129 0 010-.144l1.654 1.124a1.871 1.871 0 000-2.104l-1.654 1.124zM-.676 2.948a1.87 1.87 0 000 2.104L.978 3.928a.13.13 0 010 .144L-.676 2.948z" fill="currentColor" mask="url(#icon-view_a)" /><circle cx="6.773" cy="4" r="3.5" stroke="currentColor" /><circle cx="6.773" cy="4" r="1" fill="currentColor" /></symbol><mask id="icon-view_a" fill="#fff"><path fill-rule="evenodd" clip-rule="evenodd" d="M.15 4.49a.871.871 0 010-.98A7.992 7.992 0 016.774 0a7.992 7.992 0 016.622 3.51.871.871 0 010 .98A7.992 7.992 0 016.773 8 7.992 7.992 0 01.151 4.49z" /></mask><symbol fill="currentColor" viewBox="0 0 40 40" id="icon-youtube-icon"><path d="M20 0a20 20 0 100 40 20 20 0 000-40zm7.4 28.15c-3.5.24-11.3.24-14.8 0-3.8-.26-4.24-2.11-4.27-8.15.03-6.05.48-7.9 4.27-8.15 3.5-.24 11.3-.24 14.8 0 3.8.26 4.24 2.11 4.27 8.15-.03 6.05-.48 7.9-4.27 8.15zM16.67 16.1l8.2 3.9-8.2 3.9v-7.8z" /></symbol></defs></svg>